<svg width="214" height="214" viewBox="0 0 214 214" fill="none" xmlns="http://www.w3.org/2000/svg">
<path d="M53.0624 81.3104L52.524 67.29L41.7233 76.2454L28.2229 72.4252L33.4024 85.4658L25.5972 97.1272L39.5992 96.2306L48.2758 107.257L51.75 93.663L64.916 88.8183L53.0624 81.3104ZM49.4536 91.378L47.2146 100.139L41.6222 93.034L32.5978 93.6116L37.6285 86.0974L34.2902 77.692L42.9914 80.1543L49.9527 74.3825L50.2996 83.4186L57.9405 88.2558L49.4536 91.378ZM48.2094 90.1421L46.6395 96.2862L42.7185 91.3036L36.3913 91.7086L39.9185 86.4422L37.5779 80.5488L43.6802 82.2751L48.5613 78.2283L48.8045 84.5639L54.1616 87.9552L48.2094 90.1421Z" fill="#FE57D9" fill-opacity="0.81"/>
<path d="M36.6233 149.996L39.4011 147.014L38.5196 143.036L42.2136 144.757L45.7254 142.688L45.2305 146.734L48.2821 149.434L44.2821 150.214L42.6566 153.951L40.6796 150.387L36.6233 149.996Z" fill="#FF8D5C"/>
<path d="M47.0085 53.1493L48.4718 51.5786L48.0075 49.4829L49.9535 50.389L51.8035 49.2998L51.5427 51.4306L53.1506 52.8534L51.0432 53.2638L50.1872 55.2325L49.1456 53.3554L47.0085 53.1493Z" fill="#FF8D5C"/>
<path d="M121.301 93.8012L123.473 93.6031L124.54 91.7021L125.4 93.7059L127.538 94.1343L125.897 95.5709L126.151 97.7364L124.278 96.62L122.296 97.5303L122.779 95.4041L121.301 93.8012Z" fill="#FF8D5C"/>
<path d="M81.1332 107.989L82.8506 106.646L82.7173 104.47L84.5258 105.688L86.5542 104.889L85.9549 106.985L87.3417 108.667L85.1624 108.745L83.9912 110.584L83.2439 108.535L81.1332 107.989Z" fill="#FF8D5C"/>
<path d="M124.415 57.0571L107.954 54.6651L100.593 39.749L93.2313 54.6647L76.7708 57.0567L88.6829 68.667L85.8713 85.061L100.594 77.3207L115.318 85.0614L112.506 68.6674L124.415 57.0571ZM100.593 71.928L91.931 76.4839L93.5853 66.8388L86.5776 60.008L96.262 58.6011L100.593 49.8237L104.924 58.6011L114.608 60.008L107.6 66.8388L109.255 76.4839L100.593 71.928Z" fill="#FE57D9" fill-opacity="0.81"/>
<path d="M212.469 91.4049L209.659 88.2154L210.693 84.0921L206.791 85.7795L203.189 83.5225L203.588 87.7548L200.328 90.4829L204.477 91.4112L206.065 95.3547L208.23 91.6963L212.469 91.4049ZM205.546 90.151L203.403 89.6716L205.087 88.2626L204.881 86.0763L206.742 87.2424L208.757 86.3709L208.223 88.5026L209.675 90.1498L207.484 90.3002L206.366 92.1899L205.546 90.151Z" fill="#FF8D5C"/>
<path d="M158.243 154.876L156.92 153.375L157.407 151.434L155.57 152.228L153.875 151.166L154.063 153.158L152.528 154.442L154.481 154.879L155.228 156.735L156.247 155.013L158.243 154.876ZM154.983 154.287L153.974 154.061L154.768 153.398L154.671 152.369L155.549 152.917L156.498 152.507L156.247 153.51L156.931 154.286L155.899 154.356L155.373 155.246L154.983 154.287Z" fill="#FF8D5C"/>
<path d="M6.96921 92.9274L4.99974 93.2781L3.59453 91.8545L3.31867 93.8344L1.5306 94.733L3.33037 95.607L3.63048 97.5853L5.01813 96.1437L6.9922 96.4693L6.04968 94.7042L6.96921 92.9274ZM4.7732 95.4056L4.05639 96.1504L3.90132 95.1301L2.97134 94.6787L3.89547 94.2156L4.03716 93.1916L4.76359 93.9272L5.78093 93.7458L5.30611 94.6653L5.79263 95.5773L4.7732 95.4056Z" fill="#FF8D5C"/>
<path d="M95.826 169.746C93.3274 116.619 64.0508 93.8359 64.0508 93.8359L55.5727 98.4925L53.1485 109.076C53.1485 109.076 85.2706 128.216 94.6277 170.081C94.8463 171.05 95.8737 170.76 95.826 169.746Z" fill="#DE3562" fill-opacity="0.81"/>
<path d="M175.396 72.5243L161.874 76.2656L151.126 67.2471L150.506 81.2641L138.607 88.6993L151.746 93.6209L155.14 107.235L163.881 96.2595L177.878 97.238L170.141 85.5332L175.396 72.5243Z" fill="#FE57D9" fill-opacity="0.81"/>
<path d="M197.148 116.037L188.175 113.597L185.098 104.822L180.005 112.601L170.708 112.816L176.534 120.064L173.866 128.972L182.56 125.67L190.208 130.96L189.756 121.672L197.148 116.037ZM183.265 121.958L179.053 123.557L180.346 119.241L177.523 115.73L182.027 115.625L184.493 111.856L185.984 116.108L190.331 117.29L186.749 120.022L186.968 124.522L183.265 121.958Z" fill="#FE57D9" fill-opacity="0.81"/>
<path d="M107.707 169.746C110.205 116.619 139.482 93.8359 139.482 93.8359L147.961 98.4925L150.385 109.076C150.385 109.076 118.263 128.216 108.906 170.081C108.686 171.05 107.659 170.76 107.707 169.746Z" fill="#DE3562" fill-opacity="0.81"/>
<path d="M117.936 158.551C138.368 120.742 167.667 114.409 167.667 114.409L172.209 120.77L170.265 129.325C170.265 129.325 140.171 132.008 118.69 159.214C118.193 159.844 117.546 159.272 117.936 158.551Z" fill="#641DD6" fill-opacity="0.66"/>
<path d="M7.24632 116.037L16.2197 113.597L19.2968 104.822L24.3897 112.602L33.6862 112.818L27.8605 120.065L30.5289 128.973L21.8355 125.672L14.1884 130.962L14.641 121.675L7.24632 116.037Z" fill="#FE57D9" fill-opacity="0.81"/>
<path d="M86.4581 158.551C66.0265 120.742 36.7273 114.409 36.7273 114.409L32.1857 120.77L34.1297 129.325C34.1297 129.325 64.2234 132.008 85.7041 159.214C86.2019 159.844 86.8481 159.272 86.4581 158.551Z" fill="#641DD6" fill-opacity="0.66"/>
<path d="M114.607 90.9314L100.407 83.5225L86.5776 91.0547L100.893 173.397C100.935 173.639 101.062 173.858 101.252 174.014C101.441 174.171 101.68 174.255 101.925 174.251C102.171 174.247 102.407 174.155 102.591 173.993C102.775 173.83 102.895 173.608 102.93 173.364L114.607 90.9314Z" fill="#641DD6" fill-opacity="0.66"/>
</svg>
