<svg width="16" height="16" viewBox="0 0 16 16" fill="none" xmlns="http://www.w3.org/2000/svg">
<g clip-path="url(#clip0_9218_4589)">
<path d="M9.22889 7.97977H9.37889C9.37889 4.29229 8.12391 1.17519 6.41582 0.214043C6.3402 0.229349 6.26457 0.244967 6.18958 0.262459C7.9286 1.07524 9.22889 4.22638 9.22889 7.97977Z" fill="white"/>
<path d="M8.82891 7.97977H8.9789C8.9789 4.3707 7.77674 1.30795 6.12396 0.278389C6.05677 0.294632 5.9899 0.3115 5.92334 0.329305C7.59487 1.23766 8.82891 4.32322 8.82891 7.97977V7.97977Z" fill="white"/>
<path d="M6.71583 0.160004C6.6299 0.173748 6.5449 0.189054 6.4599 0.205609C8.26361 0.918741 9.6289 4.13361 9.6289 7.97977H9.7789C9.7789 4.22076 8.47486 1.05368 6.71583 0.160004V0.160004Z" fill="white"/>
<path d="M6.97925 8.0538H6.82925C6.84644 11.8016 8.15954 14.9477 9.92232 15.8145C8.04485 15.2492 6.59738 11.9899 6.57926 8.0538H6.42926C6.44676 11.899 7.82861 15.1105 9.66045 15.877C9.82701 15.8417 9.99169 15.8014 10.1545 15.7561C8.35922 15.0527 6.99675 11.8719 6.97925 8.0538V8.0538Z" fill="white"/>
<path d="M8.56891 7.4197C8.45485 4.13861 7.34612 1.39041 5.8374 0.352417C5.77615 0.369597 5.71553 0.387402 5.65491 0.405832C7.1555 1.33668 8.27579 4.03802 8.41423 7.29663C8.47079 7.3313 8.52266 7.37253 8.56891 7.4197Z" fill="white"/>
<path d="M7.38765 8.49611C7.31671 8.4124 7.26265 8.31369 7.23077 8.20561C7.28077 11.7944 8.51919 14.8043 10.1929 15.7452C10.2598 15.7261 10.3263 15.7061 10.3926 15.6852C8.74668 14.8924 7.49983 12.0012 7.38765 8.49611Z" fill="white"/>
<path d="M7.79795 8.75413C7.74483 8.74038 7.69358 8.72133 7.64514 8.69728C7.79139 11.9709 8.92855 14.6891 10.457 15.6646C10.5173 15.6452 10.5776 15.6249 10.6373 15.604C9.10855 14.7316 7.95607 12.0324 7.79795 8.75413V8.75413Z" fill="white"/>
<path d="M7.1983 7.97977C7.1983 7.54465 7.54579 7.19105 7.97859 7.18074C7.82578 4.10144 6.79924 1.5366 5.40146 0.489548C2.25902 1.56784 0 4.54687 0 8.0538H7.20173C7.19955 8.02944 7.1983 8.00476 7.1983 7.97977Z" fill="white"/>
<path d="M15.9987 7.97977H8.79825C8.79825 8.41584 8.44889 8.77037 8.01483 8.77912C8.15733 11.9434 9.22168 14.5751 10.667 15.5949C13.7738 14.497 16 11.5361 16 8.05443C16 8.02944 15.9994 8.00476 15.9991 7.97977H15.9987Z" fill="white"/>
</g>
<defs>
<clipPath id="clip0_9218_4589">
<rect width="16" height="16" fill="white"/>
</clipPath>
</defs>
</svg>
