<svg width="16" height="16" viewBox="0 0 16 16" fill="none" xmlns="http://www.w3.org/2000/svg">
<g clip-path="url(#clip0_9238_4531)">
<path d="M9.22877 7.9796H9.37877C9.37877 4.29212 8.12379 1.17502 6.4157 0.213867C6.34007 0.229173 6.26445 0.244791 6.18945 0.262284C7.92848 1.07506 9.22877 4.22621 9.22877 7.9796Z" fill="url(#paint0_linear_9238_4531)"/>
<path d="M8.8294 7.9797H8.97939C8.97939 4.37063 7.77723 1.30788 6.12445 0.27832C6.05726 0.294563 5.99039 0.311431 5.92383 0.329236C7.59536 1.2376 8.8294 4.32315 8.8294 7.9797V7.9797Z" fill="url(#paint1_linear_9238_4531)"/>
<path d="M6.71492 0.160156C6.62898 0.1739 6.54398 0.189206 6.45898 0.205762C8.2627 0.918893 9.62798 4.13376 9.62798 7.97993H9.77798C9.77798 4.22091 8.47394 1.05384 6.71492 0.160156V0.160156Z" fill="url(#paint2_linear_9238_4531)"/>
<path d="M6.97968 8.05371H6.82968C6.84687 11.8015 8.15997 14.9476 9.92274 15.8144C8.04528 15.2491 6.59781 11.9898 6.57968 8.05371H6.42969C6.44719 11.8989 7.82904 15.1104 9.66087 15.8769C9.82743 15.8416 9.99212 15.8013 10.1549 15.756C8.35965 15.0526 6.99718 11.8718 6.97968 8.05371V8.05371Z" fill="url(#paint3_linear_9238_4531)"/>
<path d="M8.5683 7.41982C8.45424 4.13873 7.34551 1.39053 5.83679 0.352539C5.77554 0.369719 5.71492 0.387524 5.6543 0.405954C7.15489 1.3368 8.27518 4.03815 8.41362 7.29675C8.47018 7.33142 8.52205 7.37265 8.5683 7.41982Z" fill="url(#paint4_linear_9238_4531)"/>
<path d="M7.38734 8.49655C7.3164 8.41284 7.26234 8.31413 7.23047 8.20605C7.28047 11.7948 8.51888 14.8048 10.1926 15.7456C10.2595 15.7266 10.326 15.7066 10.3923 15.6857C8.74638 14.8929 7.49953 12.0016 7.38734 8.49655Z" fill="url(#paint5_linear_9238_4531)"/>
<path d="M7.79734 8.75412C7.74422 8.74037 7.69297 8.72132 7.64453 8.69727C7.79078 11.9709 8.92794 14.6891 10.4564 15.6646C10.5167 15.6452 10.577 15.6249 10.6367 15.604C9.10794 14.7316 7.95546 12.0324 7.79734 8.75412V8.75412Z" fill="url(#paint6_linear_9238_4531)"/>
<path d="M7.1983 7.97948C7.1983 7.54436 7.54579 7.19076 7.97859 7.18045C7.82578 4.10115 6.79924 1.53631 5.40146 0.489258C2.25902 1.56755 0 4.54658 0 8.05351H7.20173C7.19955 8.02915 7.1983 8.00447 7.1983 7.97948Z" fill="url(#paint7_linear_9238_4531)"/>
<path d="M15.9995 7.97949H8.79905C8.79905 8.41556 8.44968 8.77009 8.01562 8.77884C8.15812 11.9431 9.22248 14.5748 10.6678 15.5947C13.7746 14.4967 16.0008 11.5358 16.0008 8.05415C16.0008 8.02916 16.0002 8.00448 15.9998 7.97949H15.9995Z" fill="url(#paint8_linear_9238_4531)"/>
</g>
<defs>
<linearGradient id="paint0_linear_9238_4531" x1="7.78411" y1="0.87171" x2="7.78411" y2="7.20024" gradientUnits="userSpaceOnUse">
<stop stop-color="#873AFF"/>
<stop offset="1" stop-color="#FF3A55"/>
</linearGradient>
<linearGradient id="paint1_linear_9238_4531" x1="7.45161" y1="0.871816" x2="7.45161" y2="7.20035" gradientUnits="userSpaceOnUse">
<stop stop-color="#873AFF"/>
<stop offset="1" stop-color="#FF3A55"/>
</linearGradient>
<linearGradient id="paint2_linear_9238_4531" x1="8.11833" y1="0.872038" x2="8.11833" y2="7.20057" gradientUnits="userSpaceOnUse">
<stop stop-color="#873AFF"/>
<stop offset="1" stop-color="#FF3A55"/>
</linearGradient>
<linearGradient id="paint3_linear_9238_4531" x1="8.29246" y1="8.80964" x2="8.29246" y2="13.9652" gradientUnits="userSpaceOnUse">
<stop stop-color="#FF3A55"/>
<stop offset="1" stop-color="#873AFF"/>
</linearGradient>
<linearGradient id="paint4_linear_9238_4531" x1="7.11146" y1="0.833895" x2="7.11146" y2="6.69763" gradientUnits="userSpaceOnUse">
<stop stop-color="#873AFF"/>
<stop offset="1" stop-color="#FF3A55"/>
</linearGradient>
<linearGradient id="paint5_linear_9238_4531" x1="8.81138" y1="8.9473" x2="8.81138" y2="14.0011" gradientUnits="userSpaceOnUse">
<stop stop-color="#FF3A55"/>
<stop offset="1" stop-color="#873AFF"/>
</linearGradient>
<linearGradient id="paint6_linear_9238_4531" x1="9.14044" y1="9.38947" x2="9.14044" y2="14.109" gradientUnits="userSpaceOnUse">
<stop stop-color="#FF3A55"/>
<stop offset="1" stop-color="#873AFF"/>
</linearGradient>
<linearGradient id="paint7_linear_9238_4531" x1="3.9893" y1="1.97831" x2="3.9893" y2="7.76083" gradientUnits="userSpaceOnUse">
<stop stop-color="#873AFF"/>
<stop offset="1" stop-color="#FF3A55"/>
</linearGradient>
<linearGradient id="paint8_linear_9238_4531" x1="12.008" y1="14.1975" x2="12.008" y2="8.79196" gradientUnits="userSpaceOnUse">
<stop stop-color="#873AFF"/>
<stop offset="1" stop-color="#FF3A55"/>
</linearGradient>
<clipPath id="clip0_9238_4531">
<rect width="16" height="16" fill="white"/>
</clipPath>
</defs>
</svg>
