<svg width="245" height="60" viewBox="0 0 245 60" fill="none" xmlns="http://www.w3.org/2000/svg">
<g clip-path="url(#clip0_8997_30175)">
<path d="M35.1083 29.9242H35.6708C35.6708 16.0962 30.9647 4.40705 24.5593 0.802734C24.2757 0.860132 23.9922 0.9187 23.7109 0.984297C30.2323 4.03221 35.1083 15.849 35.1083 29.9242Z" fill="url(#paint0_linear_8997_30175)"/>
<path d="M33.6083 29.9251H34.1708C34.1708 16.3911 29.6627 4.90577 23.4648 1.04492C23.2128 1.10583 22.9621 1.16909 22.7125 1.23586C28.9807 4.64221 33.6083 16.213 33.6083 29.9251V29.9251Z" fill="url(#paint1_linear_8997_30175)"/>
<path d="M25.6843 0.600586C25.362 0.652126 25.0433 0.709524 24.7245 0.771606C31.4885 3.44585 36.6083 15.5016 36.6083 29.9247H37.1708C37.1708 15.8284 32.2807 3.95188 25.6843 0.600586V0.600586Z" fill="url(#paint2_linear_8997_30175)"/>
<path d="M26.6721 30.2031H26.1096C26.1741 44.2573 31.0982 56.0553 37.7086 59.3059C30.6681 57.1857 25.2401 44.9636 25.1721 30.2031H24.6096C24.6753 44.6227 29.8572 56.6656 36.7266 59.5401C37.3512 59.4078 37.9688 59.2567 38.5793 59.0868C31.847 56.4489 26.7377 44.5208 26.6721 30.2031V30.2031Z" fill="url(#paint3_linear_8997_30175)"/>
<path d="M32.6333 27.8255C32.2056 15.5214 28.0479 5.21571 22.3902 1.32324C22.1605 1.38767 21.9331 1.45444 21.7058 1.52355C27.333 5.01424 31.5341 15.1443 32.0533 27.364C32.2654 27.494 32.4599 27.6487 32.6333 27.8255Z" fill="url(#paint4_linear_8997_30175)"/>
<path d="M28.2037 31.8609C27.9377 31.5469 27.735 31.1768 27.6155 30.7715C27.803 44.2294 32.447 55.5167 38.7235 59.0449C38.9742 58.9734 39.2238 58.8985 39.4723 58.82C33.3001 55.8471 28.6244 45.0048 28.2037 31.8609Z" fill="url(#paint5_linear_8997_30175)"/>
<path d="M29.7424 32.8284C29.5432 32.7769 29.351 32.7054 29.1694 32.6152C29.7178 44.8912 33.9822 55.0845 39.7137 58.7427C39.9399 58.6701 40.166 58.5939 40.3899 58.5155C34.6572 55.2438 30.3354 45.122 29.7424 32.8284V32.8284Z" fill="url(#paint6_linear_8997_30175)"/>
<path d="M27.4936 29.9243C27.4936 28.2926 28.7967 26.9666 30.4197 26.9279C29.8467 15.3805 25.9972 5.76238 20.7555 1.83594C8.97132 5.87952 0.5 17.0509 0.5 30.2019H27.5065C27.4983 30.1105 27.4936 30.018 27.4936 29.9243Z" fill="url(#paint7_linear_8997_30175)"/>
<path d="M60.4953 29.9238H33.4935C33.4935 31.5591 32.1834 32.8886 30.5557 32.9214C31.0901 44.7874 35.0814 54.6562 40.5012 58.4807C52.1518 54.3633 60.5 43.2599 60.5 30.2038C60.5 30.1101 60.4977 30.0175 60.4965 29.9238H60.4953Z" fill="url(#paint8_linear_8997_30175)"/>
</g>
<path d="M79.86 44.4C78.1 44.4 76.4467 44.1467 74.9 43.64C73.38 43.1067 72.06 42.36 70.94 41.4L73.14 38.76C74.18 39.5867 75.2467 40.2267 76.34 40.68C77.46 41.1067 78.5933 41.32 79.74 41.32C81.18 41.32 82.3533 41.04 83.26 40.48C84.1667 39.92 84.62 39.1867 84.62 38.28C84.62 37.5333 84.3533 36.9467 83.82 36.52C83.2867 36.0933 82.46 35.8 81.34 35.64L77.66 35.12C75.6333 34.8267 74.1133 34.2 73.1 33.24C72.0867 32.28 71.58 31 71.58 29.4C71.58 28.1733 71.9133 27.1067 72.58 26.2C73.2467 25.2667 74.18 24.5467 75.38 24.04C76.58 23.5067 77.98 23.24 79.58 23.24C81.0467 23.24 82.46 23.4533 83.82 23.88C85.18 24.3067 86.4867 24.9733 87.74 25.88L85.7 28.52C84.58 27.7733 83.4867 27.2267 82.42 26.88C81.38 26.5333 80.3267 26.36 79.26 26.36C78.0333 26.36 77.0467 26.6267 76.3 27.16C75.5533 27.6667 75.18 28.3333 75.18 29.16C75.18 29.9067 75.4333 30.4933 75.94 30.92C76.4733 31.32 77.34 31.6 78.54 31.76L82.22 32.28C84.2467 32.5733 85.78 33.2 86.82 34.16C87.86 35.0933 88.38 36.36 88.38 37.96C88.38 39.1867 88.0067 40.2933 87.26 41.28C86.5133 42.24 85.5 43 84.22 43.56C82.94 44.12 81.4867 44.4 79.86 44.4ZM99.3338 44.4C97.7604 44.4 96.3738 44.0667 95.1738 43.4C93.9738 42.7333 93.0404 41.8 92.3738 40.6C91.7071 39.3733 91.3738 37.9733 91.3738 36.4V23.64H95.3338V35.72C95.3338 37.32 95.7871 38.5867 96.6938 39.52C97.6271 40.4533 98.8671 40.92 100.414 40.92C101.507 40.92 102.48 40.6933 103.334 40.24C104.187 39.76 104.88 39.0933 105.414 38.24V23.64H109.414V44H105.414V41.92C103.84 43.5733 101.814 44.4 99.3338 44.4ZM114.149 44V23.64H118.149V26.24C118.789 25.28 119.576 24.5333 120.509 24C121.469 23.44 122.549 23.16 123.749 23.16C124.576 23.1867 125.256 23.3067 125.789 23.52V27.12C125.416 26.96 125.029 26.8533 124.629 26.8C124.229 26.72 123.829 26.68 123.429 26.68C122.256 26.68 121.216 27 120.309 27.64C119.402 28.2533 118.682 29.16 118.149 30.36V44H114.149ZM136.139 44L127.339 23.64H131.739L138.099 38.88L144.459 23.64H148.699L139.979 44H136.139ZM160.354 44.36C158.354 44.36 156.541 43.8933 154.914 42.96C153.314 42.0267 152.034 40.76 151.074 39.16C150.141 37.56 149.674 35.7733 149.674 33.8C149.674 31.8533 150.128 30.0933 151.034 28.52C151.941 26.92 153.168 25.6533 154.714 24.72C156.261 23.76 157.981 23.28 159.874 23.28C161.768 23.28 163.448 23.76 164.914 24.72C166.381 25.6533 167.541 26.9333 168.394 28.56C169.274 30.16 169.714 31.9733 169.714 34V35.12H153.674C153.888 36.24 154.301 37.24 154.914 38.12C155.554 39 156.354 39.6933 157.314 40.2C158.301 40.7067 159.368 40.96 160.514 40.96C161.501 40.96 162.448 40.8133 163.354 40.52C164.288 40.2 165.061 39.7467 165.674 39.16L168.234 41.68C167.034 42.5867 165.794 43.2667 164.514 43.72C163.261 44.1467 161.874 44.36 160.354 44.36ZM153.714 32.12H165.754C165.594 31.0533 165.221 30.12 164.634 29.32C164.074 28.4933 163.368 27.8533 162.514 27.4C161.688 26.92 160.781 26.68 159.794 26.68C158.781 26.68 157.848 26.9067 156.994 27.36C156.141 27.8133 155.421 28.4533 154.834 29.28C154.274 30.08 153.901 31.0267 153.714 32.12ZM174.298 52.6C173.871 52.6 173.471 52.5733 173.098 52.52C172.725 52.4933 172.418 52.44 172.178 52.36V48.84C172.658 48.9467 173.245 49 173.938 49C175.805 49 177.151 48 177.978 46L178.858 44.04L170.698 23.64H175.138L181.058 39.16L187.618 23.64H191.938L182.098 46.52C181.458 47.96 180.778 49.12 180.058 50C179.338 50.9067 178.511 51.56 177.578 51.96C176.645 52.3867 175.551 52.6 174.298 52.6ZM189.485 44L200.205 29.52L190.085 16H195.165L202.725 26.32L210.245 16H215.125L205.125 29.48L215.965 44H210.925L202.645 32.64L194.325 44H189.485ZM222.384 40.24H228.144C229.61 40.24 230.97 39.9867 232.224 39.48C233.477 38.9467 234.57 38.2267 235.504 37.32C236.464 36.3867 237.197 35.3067 237.704 34.08C238.237 32.8267 238.504 31.4667 238.504 30C238.504 28.56 238.237 27.2133 237.704 25.96C237.197 24.7067 236.464 23.6267 235.504 22.72C234.57 21.7867 233.477 21.0667 232.224 20.56C230.97 20.0267 229.61 19.76 228.144 19.76H222.384V40.24ZM218.184 44V16H228.064C230.17 16 232.117 16.36 233.904 17.08C235.69 17.7733 237.25 18.7467 238.584 20C239.917 21.2533 240.957 22.7333 241.704 24.44C242.45 26.1467 242.824 28 242.824 30C242.824 32.0267 242.45 33.8933 241.704 35.6C240.984 37.28 239.957 38.7467 238.624 40C237.29 41.2533 235.717 42.24 233.904 42.96C232.117 43.6533 230.17 44 228.064 44H218.184Z" fill="black"/>
<defs>
<linearGradient id="paint0_linear_8997_30175" x1="29.6909" y1="3.26964" x2="29.6909" y2="27.0017" gradientUnits="userSpaceOnUse">
<stop stop-color="#873AFF"/>
<stop offset="1" stop-color="#FF3A55"/>
</linearGradient>
<linearGradient id="paint1_linear_8997_30175" x1="28.4416" y1="3.27053" x2="28.4416" y2="27.0025" gradientUnits="userSpaceOnUse">
<stop stop-color="#873AFF"/>
<stop offset="1" stop-color="#FF3A55"/>
</linearGradient>
<linearGradient id="paint2_linear_8997_30175" x1="30.9471" y1="3.27014" x2="30.9471" y2="27.0021" gradientUnits="userSpaceOnUse">
<stop stop-color="#873AFF"/>
<stop offset="1" stop-color="#FF3A55"/>
</linearGradient>
<linearGradient id="paint3_linear_8997_30175" x1="31.5951" y1="33.0378" x2="31.5951" y2="52.3713" gradientUnits="userSpaceOnUse">
<stop stop-color="#FF3A55"/>
<stop offset="1" stop-color="#873AFF"/>
</linearGradient>
<linearGradient id="paint4_linear_8997_30175" x1="27.1702" y1="3.12833" x2="27.1702" y2="25.1173" gradientUnits="userSpaceOnUse">
<stop stop-color="#873AFF"/>
<stop offset="1" stop-color="#FF3A55"/>
</linearGradient>
<linearGradient id="paint5_linear_8997_30175" x1="33.5439" y1="33.5512" x2="33.5439" y2="52.5028" gradientUnits="userSpaceOnUse">
<stop stop-color="#FF3A55"/>
<stop offset="1" stop-color="#873AFF"/>
</linearGradient>
<linearGradient id="paint6_linear_8997_30175" x1="34.779" y1="35.211" x2="34.779" y2="52.9093" gradientUnits="userSpaceOnUse">
<stop stop-color="#FF3A55"/>
<stop offset="1" stop-color="#873AFF"/>
</linearGradient>
<linearGradient id="paint7_linear_8997_30175" x1="15.4599" y1="7.41987" x2="15.4599" y2="29.1043" gradientUnits="userSpaceOnUse">
<stop stop-color="#873AFF"/>
<stop offset="1" stop-color="#FF3A55"/>
</linearGradient>
<linearGradient id="paint8_linear_8997_30175" x1="45.5273" y1="53.2412" x2="45.5273" y2="32.9706" gradientUnits="userSpaceOnUse">
<stop stop-color="#873AFF"/>
<stop offset="1" stop-color="#FF3A55"/>
</linearGradient>
<clipPath id="clip0_8997_30175">
<rect width="60" height="60" fill="white" transform="translate(0.5)"/>
</clipPath>
</defs>
</svg>
