<svg width="98" height="24" viewBox="0 0 98 24" fill="none" xmlns="http://www.w3.org/2000/svg">
<g clip-path="url(#clip0_9219_4626)">
<path d="M13.8432 11.9699H14.0681C14.0681 6.43866 12.1857 1.76301 9.62355 0.321289C9.51011 0.344248 9.39668 0.367675 9.28418 0.393914C11.8927 1.61308 13.8432 6.3398 13.8432 11.9699Z" fill="url(#paint0_linear_9219_4626)"/>
<path d="M13.2431 11.97H13.4681C13.4681 6.55643 11.6649 1.96231 9.1857 0.417969C9.08492 0.442333 8.98461 0.467635 8.88477 0.494342C11.3921 1.85688 13.2431 6.48521 13.2431 11.97V11.97Z" fill="url(#paint1_linear_9219_4626)"/>
<path d="M10.0734 0.240234C9.94445 0.260851 9.81695 0.283809 9.68945 0.308643C12.395 1.37834 14.443 6.20065 14.443 11.9699H14.6679C14.6679 6.33137 12.7119 1.58075 10.0734 0.240234V0.240234Z" fill="url(#paint2_linear_9219_4626)"/>
<path d="M10.4685 12.0811H10.2435C10.2693 17.7027 12.239 22.4219 14.8831 23.7222C12.0669 22.8741 9.89574 17.9852 9.86855 12.0811H9.64355C9.6698 17.8489 11.7426 22.666 14.4903 23.8159C14.7402 23.7629 14.9872 23.7025 15.2314 23.6345C12.5385 22.5794 10.4948 17.8081 10.4685 12.0811V12.0811Z" fill="url(#paint3_linear_9219_4626)"/>
<path d="M12.8534 11.1297C12.6823 6.20809 11.0192 2.0858 8.75617 0.528809C8.66429 0.554579 8.57336 0.581286 8.48242 0.60893C10.7333 2.00521 12.4138 6.05722 12.6214 10.9451C12.7062 10.9971 12.7841 11.059 12.8534 11.1297Z" fill="url(#paint4_linear_9219_4626)"/>
<path d="M11.082 12.7443C10.9756 12.6188 10.8945 12.4707 10.8467 12.3086C10.9217 17.6918 12.7793 22.2067 15.2899 23.618C15.3902 23.5894 15.49 23.5594 15.5894 23.528C13.1205 22.3388 11.2503 18.0019 11.082 12.7443Z" fill="url(#paint5_linear_9219_4626)"/>
<path d="M11.697 13.1317C11.6173 13.111 11.5404 13.0825 11.4678 13.0464C11.6871 17.9568 13.3929 22.0341 15.6855 23.4974C15.776 23.4683 15.8664 23.4379 15.956 23.4065C13.6629 22.0978 11.9342 18.0491 11.697 13.1317V13.1317Z" fill="url(#paint6_linear_9219_4626)"/>
<path d="M10.7974 11.9697C10.7974 11.317 11.3187 10.7866 11.9679 10.7712C11.7387 6.15221 10.1989 2.30495 8.10218 0.734375C3.38853 2.35181 0 6.82036 0 12.0808H10.8026C10.7993 12.0442 10.7974 12.0072 10.7974 11.9697Z" fill="url(#paint7_linear_9219_4626)"/>
<path d="M23.9983 11.9697H13.1976C13.1976 12.6238 12.6735 13.1556 12.0225 13.1687C12.2362 17.9151 13.8327 21.8627 16.0007 23.3925C20.6609 21.7455 24.0002 17.3042 24.0002 12.0817C24.0002 12.0442 23.9993 12.0072 23.9988 11.9697H23.9983Z" fill="url(#paint8_linear_9219_4626)"/>
</g>
<path d="M31.744 18.16C31.04 18.16 30.3787 18.0587 29.76 17.856C29.152 17.6427 28.624 17.344 28.176 16.96L29.056 15.904C29.472 16.2347 29.8987 16.4907 30.336 16.672C30.784 16.8427 31.2373 16.928 31.696 16.928C32.272 16.928 32.7413 16.816 33.104 16.592C33.4667 16.368 33.648 16.0747 33.648 15.712C33.648 15.4133 33.5413 15.1787 33.328 15.008C33.1147 14.8373 32.784 14.72 32.336 14.656L30.864 14.448C30.0533 14.3307 29.4453 14.08 29.04 13.696C28.6347 13.312 28.432 12.8 28.432 12.16C28.432 11.6693 28.5653 11.2427 28.832 10.88C29.0987 10.5067 29.472 10.2187 29.952 10.016C30.432 9.80267 30.992 9.696 31.632 9.696C32.2187 9.696 32.784 9.78133 33.328 9.952C33.872 10.1227 34.3947 10.3893 34.896 10.752L34.08 11.808C33.632 11.5093 33.1947 11.2907 32.768 11.152C32.352 11.0133 31.9307 10.944 31.504 10.944C31.0133 10.944 30.6187 11.0507 30.32 11.264C30.0213 11.4667 29.872 11.7333 29.872 12.064C29.872 12.3627 29.9733 12.5973 30.176 12.768C30.3893 12.928 30.736 13.04 31.216 13.104L32.688 13.312C33.4987 13.4293 34.112 13.68 34.528 14.064C34.944 14.4373 35.152 14.944 35.152 15.584C35.152 16.0747 35.0027 16.5173 34.704 16.912C34.4053 17.296 34 17.6 33.488 17.824C32.976 18.048 32.3947 18.16 31.744 18.16ZM39.5335 18.16C38.9042 18.16 38.3495 18.0267 37.8695 17.76C37.3895 17.4933 37.0162 17.12 36.7495 16.64C36.4828 16.1493 36.3495 15.5893 36.3495 14.96V9.856H37.9335V14.688C37.9335 15.328 38.1148 15.8347 38.4775 16.208C38.8508 16.5813 39.3468 16.768 39.9655 16.768C40.4028 16.768 40.7922 16.6773 41.1335 16.496C41.4748 16.304 41.7522 16.0373 41.9655 15.696V9.856H43.5655V18H41.9655V17.168C41.3362 17.8293 40.5255 18.16 39.5335 18.16ZM45.4596 18V9.856H47.0596V10.896C47.3156 10.512 47.6303 10.2133 48.0036 10C48.3876 9.776 48.8196 9.664 49.2996 9.664C49.6303 9.67467 49.9023 9.72267 50.1156 9.808V11.248C49.9663 11.184 49.8116 11.1413 49.6516 11.12C49.4916 11.088 49.3316 11.072 49.1716 11.072C48.7023 11.072 48.2863 11.2 47.9236 11.456C47.561 11.7013 47.273 12.064 47.0596 12.544V18H45.4596ZM54.2555 18L50.7355 9.856H52.4955L55.0395 15.952L57.5835 9.856H59.2795L55.7915 18H54.2555ZM63.9418 18.144C63.1418 18.144 62.4164 17.9573 61.7658 17.584C61.1258 17.2107 60.6138 16.704 60.2298 16.064C59.8564 15.424 59.6698 14.7093 59.6698 13.92C59.6698 13.1413 59.8511 12.4373 60.2138 11.808C60.5764 11.168 61.0671 10.6613 61.6858 10.288C62.3044 9.904 62.9924 9.712 63.7498 9.712C64.5071 9.712 65.1791 9.904 65.7658 10.288C66.3524 10.6613 66.8164 11.1733 67.1578 11.824C67.5098 12.464 67.6858 13.1893 67.6858 14V14.448H61.2698C61.3551 14.896 61.5204 15.296 61.7658 15.648C62.0218 16 62.3418 16.2773 62.7258 16.48C63.1204 16.6827 63.5471 16.784 64.0058 16.784C64.4004 16.784 64.7791 16.7253 65.1418 16.608C65.5151 16.48 65.8244 16.2987 66.0698 16.064L67.0938 17.072C66.6138 17.4347 66.1178 17.7067 65.6058 17.888C65.1044 18.0587 64.5498 18.144 63.9418 18.144ZM61.2858 13.248H66.1018C66.0378 12.8213 65.8884 12.448 65.6538 12.128C65.4298 11.7973 65.1471 11.5413 64.8058 11.36C64.4751 11.168 64.1124 11.072 63.7178 11.072C63.3124 11.072 62.9391 11.1627 62.5978 11.344C62.2564 11.5253 61.9684 11.7813 61.7338 12.112C61.5098 12.432 61.3604 12.8107 61.2858 13.248ZM69.5193 21.44C69.3486 21.44 69.1886 21.4293 69.0393 21.408C68.8899 21.3973 68.7673 21.376 68.6713 21.344V19.936C68.8633 19.9787 69.0979 20 69.3753 20C70.1219 20 70.6606 19.6 70.9913 18.8L71.3433 18.016L68.0793 9.856H69.8553L72.2233 16.064L74.8473 9.856H76.5753L72.6393 19.008C72.3833 19.584 72.1113 20.048 71.8233 20.4C71.5353 20.7627 71.2046 21.024 70.8313 21.184C70.4579 21.3547 70.0206 21.44 69.5193 21.44ZM75.5941 18L79.8821 12.208L75.8341 6.8H77.8661L80.8901 10.928L83.8981 6.8H85.8501L81.8501 12.192L86.1861 18H84.1701L80.8581 13.456L77.5301 18H75.5941ZM88.7535 16.496H91.0575C91.6442 16.496 92.1882 16.3947 92.6895 16.192C93.1908 15.9787 93.6282 15.6907 94.0015 15.328C94.3855 14.9547 94.6788 14.5227 94.8815 14.032C95.0948 13.5307 95.2015 12.9867 95.2015 12.4C95.2015 11.824 95.0948 11.2853 94.8815 10.784C94.6788 10.2827 94.3855 9.85067 94.0015 9.488C93.6282 9.11467 93.1908 8.82667 92.6895 8.624C92.1882 8.41067 91.6442 8.304 91.0575 8.304H88.7535V16.496ZM87.0735 18V6.8H91.0255C91.8682 6.8 92.6468 6.944 93.3615 7.232C94.0762 7.50933 94.7002 7.89867 95.2335 8.4C95.7668 8.90133 96.1828 9.49333 96.4815 10.176C96.7802 10.8587 96.9295 11.6 96.9295 12.4C96.9295 13.2107 96.7802 13.9573 96.4815 14.64C96.1935 15.312 95.7828 15.8987 95.2495 16.4C94.7162 16.9013 94.0868 17.296 93.3615 17.584C92.6468 17.8613 91.8682 18 91.0255 18H87.0735Z" fill="black"/>
<defs>
<linearGradient id="paint0_linear_9219_4626" x1="11.6762" y1="1.30805" x2="11.6762" y2="10.8009" gradientUnits="userSpaceOnUse">
<stop stop-color="#873AFF"/>
<stop offset="1" stop-color="#FF3A55"/>
</linearGradient>
<linearGradient id="paint1_linear_9219_4626" x1="11.1764" y1="1.30821" x2="11.1764" y2="10.801" gradientUnits="userSpaceOnUse">
<stop stop-color="#873AFF"/>
<stop offset="1" stop-color="#FF3A55"/>
</linearGradient>
<linearGradient id="paint2_linear_9219_4626" x1="12.1785" y1="1.30806" x2="12.1785" y2="10.8009" gradientUnits="userSpaceOnUse">
<stop stop-color="#873AFF"/>
<stop offset="1" stop-color="#FF3A55"/>
</linearGradient>
<linearGradient id="paint3_linear_9219_4626" x1="12.4377" y1="13.2149" x2="12.4377" y2="20.9483" gradientUnits="userSpaceOnUse">
<stop stop-color="#FF3A55"/>
<stop offset="1" stop-color="#873AFF"/>
</linearGradient>
<linearGradient id="paint4_linear_9219_4626" x1="10.6682" y1="1.25084" x2="10.6682" y2="10.0464" gradientUnits="userSpaceOnUse">
<stop stop-color="#873AFF"/>
<stop offset="1" stop-color="#FF3A55"/>
</linearGradient>
<linearGradient id="paint5_linear_9219_4626" x1="13.218" y1="13.4205" x2="13.218" y2="21.0011" gradientUnits="userSpaceOnUse">
<stop stop-color="#FF3A55"/>
<stop offset="1" stop-color="#873AFF"/>
</linearGradient>
<linearGradient id="paint6_linear_9219_4626" x1="13.7116" y1="14.0847" x2="13.7116" y2="21.164" gradientUnits="userSpaceOnUse">
<stop stop-color="#FF3A55"/>
<stop offset="1" stop-color="#873AFF"/>
</linearGradient>
<linearGradient id="paint7_linear_9219_4626" x1="5.98395" y1="2.96795" x2="5.98395" y2="11.6417" gradientUnits="userSpaceOnUse">
<stop stop-color="#873AFF"/>
<stop offset="1" stop-color="#FF3A55"/>
</linearGradient>
<linearGradient id="paint8_linear_9219_4626" x1="18.0111" y1="21.2967" x2="18.0111" y2="13.1884" gradientUnits="userSpaceOnUse">
<stop stop-color="#873AFF"/>
<stop offset="1" stop-color="#FF3A55"/>
</linearGradient>
<clipPath id="clip0_9219_4626">
<rect width="24" height="24" fill="white"/>
</clipPath>
</defs>
</svg>
