<svg width="16" height="16" viewBox="0 0 16 16" fill="none" xmlns="http://www.w3.org/2000/svg">
<g clip-path="url(#clip0_8776_1380)">
<path d="M6.1902 0.205017C6.16802 0.210017 6.14614 0.215642 6.12427 0.220954C7.77705 1.25093 8.97921 4.31494 8.97921 7.92549H9.22921C9.22921 4.17088 7.92923 1.01844 6.19052 0.20533L6.1902 0.205017Z" fill="white"/>
<path d="M6.45958 0.147827C8.2633 0.861251 9.62858 4.07744 9.62858 7.92518H9.37859C9.37859 4.2365 8.12392 1.11812 6.41583 0.156577L6.45958 0.147827Z" fill="white"/>
<path d="M7.99548 0C7.55986 0 7.13268 0.0356243 6.71613 0.10281C8.47484 0.997168 9.77888 4.16523 9.77888 7.92547H15.9944C15.9544 3.54149 12.3888 0 7.99548 0Z" fill="white"/>
<path d="M9.8042 15.795C9.82639 15.79 9.84826 15.7844 9.87014 15.7791C8.21736 14.7491 7.01519 11.6851 7.01519 8.07452H6.7652C6.7652 11.8291 8.06517 14.9816 9.80389 15.7947L9.8042 15.795Z" fill="white"/>
<path d="M9.53448 15.8522C7.73076 15.1388 6.36548 11.9226 6.36548 8.07483H6.61547C6.61547 11.7635 7.87014 14.8819 9.57823 15.8434L9.53448 15.8522Z" fill="white"/>
<path d="M7.99891 16C8.43452 16 8.8617 15.9644 9.27826 15.8972C7.51954 15.0028 6.2155 11.8348 6.2155 8.07452H0C0.0399992 12.4582 3.60555 15.9997 7.99891 15.9997V16Z" fill="white"/>
<path d="M7.42077 8.47857C7.31578 8.3692 7.24171 8.22983 7.21234 8.07483H7.16547C7.16547 11.7329 8.3995 14.8197 10.0707 15.7284C10.0995 15.7206 10.1279 15.7131 10.1567 15.705C8.62387 14.65 7.50452 11.8298 7.42077 8.47857Z" fill="white"/>
<path d="M8.00921 8.72483C8.00546 8.72483 8.00171 8.72483 7.99796 8.72483C7.84234 8.72483 7.69703 8.68014 7.57422 8.60327C7.68328 11.932 8.81482 14.7053 10.3392 15.6513C10.4248 15.625 10.5101 15.5978 10.5945 15.5688C9.17356 14.5053 8.13577 11.8723 8.00921 8.72452V8.72483Z" fill="white"/>
<path d="M8.79827 7.92515H8.8289C8.8289 4.26709 7.59486 1.18028 5.92364 0.271545C5.89489 0.279358 5.86646 0.286858 5.83771 0.294982C7.34643 1.33371 8.45484 4.08272 8.5689 7.36484C8.71046 7.50922 8.79796 7.70703 8.79796 7.92515H8.79827Z" fill="white"/>
<path d="M7.99828 7.12519C8.15078 7.12519 8.29328 7.168 8.41452 7.24175C8.27609 3.98213 7.1558 1.27968 5.65551 0.34845C5.56989 0.374699 5.48458 0.401886 5.40021 0.430948C6.79862 1.47749 7.82579 4.04432 7.9786 7.12582C7.98516 7.12582 7.99172 7.12519 7.99828 7.12519Z" fill="white"/>
</g>
<defs>
<clipPath id="clip0_8776_1380">
<rect width="16" height="16" fill="white"/>
</clipPath>
</defs>
</svg>
