<svg width="24" height="24" viewBox="0 0 24 24" fill="none" xmlns="http://www.w3.org/2000/svg">
<g clip-path="url(#clip0_8776_1665)">
<path d="M13.8433 11.9696H14.0683C14.0683 6.43842 12.1859 1.76277 9.62373 0.321045C9.5103 0.344004 9.39686 0.367431 9.28436 0.39367C11.8929 1.61283 13.8433 6.33956 13.8433 11.9696Z" fill="url(#paint0_linear_8776_1665)"/>
<path d="M13.2434 11.9696H13.4684C13.4684 6.556 11.6651 1.96188 9.18594 0.417542C9.08516 0.441906 8.98485 0.467208 8.88501 0.493915C11.3923 1.85646 13.2434 6.48478 13.2434 11.9696Z" fill="url(#paint1_linear_8776_1665)"/>
<path d="M10.0737 0.23999C9.94481 0.260606 9.81732 0.283565 9.68982 0.308398C12.3954 1.3781 14.4433 6.2004 14.4433 11.9696H14.6683C14.6683 6.33113 12.7123 1.58051 10.0737 0.23999Z" fill="url(#paint2_linear_8776_1665)"/>
<path d="M10.4688 12.0807H10.2438C10.2696 17.7023 12.2393 22.4216 14.8834 23.7218C12.0672 22.8737 9.89604 17.9849 9.86885 12.0807H9.64386C9.67011 17.8485 11.7429 22.6657 14.4906 23.8155C14.7405 23.7626 14.9875 23.7021 15.2317 23.6342C12.5388 22.579 10.4951 17.8078 10.4688 12.0807Z" fill="url(#paint3_linear_8776_1665)"/>
<path d="M12.8534 11.1295C12.6823 6.20791 11.0192 2.08561 8.75611 0.528625C8.66423 0.554396 8.5733 0.581103 8.48236 0.608747C10.7333 2.00502 12.4137 6.05703 12.6213 10.9449C12.7062 10.9969 12.784 11.0588 12.8534 11.1295Z" fill="url(#paint4_linear_8776_1665)"/>
<path d="M11.0815 12.7442C10.9751 12.6186 10.894 12.4705 10.8462 12.3084C10.9212 17.6916 12.7788 22.2065 15.2894 23.6178C15.3897 23.5892 15.4895 23.5592 15.5889 23.5278C13.1201 22.3386 11.2498 18.0017 11.0815 12.7442Z" fill="url(#paint5_linear_8776_1665)"/>
<path d="M11.697 13.1312C11.6173 13.1106 11.5404 13.082 11.4678 13.0459C11.6871 17.9563 13.3929 22.0336 15.6855 23.4969C15.776 23.4678 15.8664 23.4374 15.956 23.406C13.6629 22.0973 11.9342 18.0486 11.697 13.1312Z" fill="url(#paint6_linear_8776_1665)"/>
<path d="M10.7974 11.9697C10.7974 11.317 11.3187 10.7866 11.9679 10.7711C11.7387 6.15215 10.1989 2.30489 8.10219 0.734314C3.38853 2.35175 0 6.8203 0 12.0807H10.8026C10.7993 12.0442 10.7974 12.0071 10.7974 11.9697Z" fill="url(#paint7_linear_8776_1665)"/>
<path d="M23.9981 11.9697H13.1974C13.1974 12.6238 12.6734 13.1556 12.0223 13.1687C12.236 17.9151 13.8326 21.8626 16.0005 23.3924C20.6607 21.7455 24 17.3041 24 12.0816C24 12.0442 23.9991 12.0071 23.9986 11.9697H23.9981Z" fill="url(#paint8_linear_8776_1665)"/>
</g>
<defs>
<linearGradient id="paint0_linear_8776_1665" x1="11.6763" y1="1.30781" x2="11.6763" y2="10.8006" gradientUnits="userSpaceOnUse">
<stop stop-color="#873AFF"/>
<stop offset="1" stop-color="#FF3A55"/>
</linearGradient>
<linearGradient id="paint1_linear_8776_1665" x1="11.1767" y1="1.30778" x2="11.1767" y2="10.8006" gradientUnits="userSpaceOnUse">
<stop stop-color="#873AFF"/>
<stop offset="1" stop-color="#FF3A55"/>
</linearGradient>
<linearGradient id="paint2_linear_8776_1665" x1="12.1788" y1="1.30781" x2="12.1788" y2="10.8006" gradientUnits="userSpaceOnUse">
<stop stop-color="#873AFF"/>
<stop offset="1" stop-color="#FF3A55"/>
</linearGradient>
<linearGradient id="paint3_linear_8776_1665" x1="12.438" y1="13.2146" x2="12.438" y2="20.948" gradientUnits="userSpaceOnUse">
<stop stop-color="#FF3A55"/>
<stop offset="1" stop-color="#873AFF"/>
</linearGradient>
<linearGradient id="paint4_linear_8776_1665" x1="10.6681" y1="1.25066" x2="10.6681" y2="10.0463" gradientUnits="userSpaceOnUse">
<stop stop-color="#873AFF"/>
<stop offset="1" stop-color="#FF3A55"/>
</linearGradient>
<linearGradient id="paint5_linear_8776_1665" x1="13.2176" y1="13.4203" x2="13.2176" y2="21.0009" gradientUnits="userSpaceOnUse">
<stop stop-color="#FF3A55"/>
<stop offset="1" stop-color="#873AFF"/>
</linearGradient>
<linearGradient id="paint6_linear_8776_1665" x1="13.7116" y1="14.0842" x2="13.7116" y2="21.1635" gradientUnits="userSpaceOnUse">
<stop stop-color="#FF3A55"/>
<stop offset="1" stop-color="#873AFF"/>
</linearGradient>
<linearGradient id="paint7_linear_8776_1665" x1="5.98395" y1="2.96789" x2="5.98395" y2="11.6417" gradientUnits="userSpaceOnUse">
<stop stop-color="#873AFF"/>
<stop offset="1" stop-color="#FF3A55"/>
</linearGradient>
<linearGradient id="paint8_linear_8776_1665" x1="18.0109" y1="21.2966" x2="18.0109" y2="13.1884" gradientUnits="userSpaceOnUse">
<stop stop-color="#873AFF"/>
<stop offset="1" stop-color="#FF3A55"/>
</linearGradient>
<clipPath id="clip0_8776_1665">
<rect width="24" height="24" fill="white"/>
</clipPath>
</defs>
</svg>
